<svg width="527" height="362" viewBox="0 0 527 362" fill="none" xmlns="http://www.w3.org/2000/svg">
<rect x="0.43934" y="1.06066" width="297" height="297" transform="matrix(1 0 -0.707107 0.707107 212.882 149.311)" fill="#DDDDDD" stroke="#2C3B78" stroke-width="3"/>
<rect x="0.146447" y="0.353553" width="59" height="19" rx="9.5" transform="matrix(1 0 -0.707107 0.707107 217.361 161.124)" fill="#2C3B78" stroke="#2C3B78"/>
<rect x="0.146447" y="0.353553" width="33" height="19" rx="9.5" transform="matrix(1 0 -0.707107 0.707107 288.361 161.124)" fill="#2C3B78" stroke="#2C3B78"/>
<path d="M341.758 161.374H381.758C387.004 161.374 388.25 164.382 384.54 168.092C380.83 171.802 373.569 174.809 368.323 174.809H328.323C323.076 174.809 321.83 171.802 325.54 168.092C329.25 164.382 336.511 161.374 341.758 161.374Z" fill="#2C3B78" stroke="#2C3B78"/>
<path d="M297.13 184.002H408.13C413.377 184.002 414.623 187.009 410.913 190.719C407.203 194.429 399.942 197.437 394.695 197.437H283.695C278.448 197.437 277.203 194.429 280.913 190.719C284.623 187.009 291.883 184.002 297.13 184.002Z" fill="#2C3B78" stroke="#2C3B78"/>
<path d="M245.13 184.002H266.13C271.377 184.002 272.623 187.009 268.913 190.719C265.203 194.429 257.942 197.437 252.695 197.437H231.695C226.448 197.437 225.203 194.429 228.913 190.719C232.623 187.009 239.883 184.002 245.13 184.002Z" fill="#2C3B78" stroke="#2C3B78"/>
<path d="M223.917 205.215H244.917C250.164 205.215 251.409 208.223 247.699 211.933C243.989 215.642 236.729 218.65 231.482 218.65H210.482C205.235 218.65 203.989 215.642 207.699 211.933C211.409 208.223 218.67 205.215 223.917 205.215Z" fill="#2C3B78" stroke="#2C3B78"/>
<path d="M202.704 226.428H254.704C259.95 226.428 261.196 229.436 257.486 233.146C253.776 236.856 246.515 239.863 241.269 239.863H189.269C184.022 239.863 182.776 236.856 186.486 233.146C190.196 229.436 197.457 226.428 202.704 226.428Z" fill="#2C3B78" stroke="#2C3B78"/>
<path d="M282.704 226.428H295.704C300.95 226.428 302.196 229.436 298.486 233.146C294.776 236.856 287.515 239.863 282.269 239.863H269.269C264.022 239.863 262.776 236.856 266.486 233.146C270.196 229.436 277.457 226.428 282.704 226.428Z" fill="#2C3B78" stroke="#2C3B78"/>
<path d="M223.917 205.215H244.917C250.164 205.215 251.409 208.223 247.699 211.933C243.989 215.642 236.729 218.65 231.482 218.65H210.482C205.235 218.65 203.989 215.642 207.699 211.933C211.409 208.223 218.67 205.215 223.917 205.215Z" fill="#2C3B78" stroke="#2C3B78"/>
<path d="M262.482 218.65C257.235 218.65 255.989 215.642 259.699 211.933C263.409 208.223 270.67 205.215 275.917 205.215C281.164 205.215 282.409 208.223 278.699 211.933C274.989 215.642 267.729 218.65 262.482 218.65Z" fill="#2C3B78" stroke="#2C3B78"/>
<path d="M307.269 239.863C302.022 239.863 300.776 236.856 304.486 233.146C308.196 229.436 315.457 226.428 320.704 226.428C325.95 226.428 327.196 229.436 323.486 233.146C319.776 236.856 312.515 239.863 307.269 239.863Z" fill="#2C3B78" stroke="#2C3B78"/>
<path d="M395.917 205.215H429.917C435.164 205.215 436.409 208.223 432.699 211.933C428.989 215.642 421.729 218.65 416.482 218.65H382.482C377.235 218.65 375.989 215.642 379.699 211.933C383.409 208.223 390.67 205.215 395.917 205.215Z" fill="#2C3B78" stroke="#2C3B78"/>
<path d="M303.917 205.215H366.917C372.164 205.215 373.409 208.223 369.699 211.933C365.989 215.642 358.729 218.65 353.482 218.65H290.482C285.235 218.65 283.989 215.642 287.699 211.933C291.409 208.223 298.67 205.215 303.917 205.215Z" fill="#2C3B78" stroke="#2C3B78"/>
<path d="M345.704 226.428H408.704C413.95 226.428 415.196 229.436 411.486 233.146C407.776 236.856 400.515 239.863 395.269 239.863H332.269C327.022 239.863 325.776 236.856 329.486 233.146C333.196 229.436 340.457 226.428 345.704 226.428Z" fill="#2C3B78" stroke="#2C3B78"/>
<path d="M408.758 161.374H473.758C479.004 161.374 480.25 164.382 476.54 168.092C472.83 171.802 465.569 174.809 460.323 174.809H395.323C390.076 174.809 388.83 171.802 392.54 168.092C396.25 164.382 403.511 161.374 408.758 161.374Z" fill="#2C3B78" stroke="#2C3B78"/>
<rect x="0.146447" y="0.353553" width="59" height="19" rx="9.5" transform="matrix(1 0 -0.707107 0.707107 114.124 264.362)" fill="#2C3B78" stroke="#2C3B78"/>
<rect x="0.146447" y="0.353553" width="103" height="19" rx="9.5" transform="matrix(1 0 -0.707107 0.707107 185.124 264.362)" fill="#2C3B78" stroke="#2C3B78"/>
<path d="M320.893 287.239H343.893C349.139 287.239 350.385 290.247 346.675 293.957C342.965 297.667 335.704 300.674 330.458 300.674H307.458C302.211 300.674 300.965 297.667 304.675 293.957C308.385 290.247 315.646 287.239 320.893 287.239Z" fill="#2C3B78" stroke="#2C3B78"/>
<path d="M203.466 329.666H226.466C231.713 329.666 232.958 332.673 229.249 336.383C225.539 340.093 218.278 343.101 213.031 343.101H190.031C184.784 343.101 183.539 340.093 187.249 336.383C190.958 332.673 198.219 329.666 203.466 329.666Z" fill="#2C3B78" stroke="#2C3B78"/>
<path d="M137.893 287.239H158.893C164.139 287.239 165.385 290.247 161.675 293.957C157.965 297.667 150.704 300.674 145.458 300.674H124.458C119.211 300.674 117.965 297.667 121.675 293.957C125.385 290.247 132.646 287.239 137.893 287.239Z" fill="#2C3B78" stroke="#2C3B78"/>
<path d="M190.893 287.239H289.893C295.139 287.239 296.385 290.247 292.675 293.957C288.965 297.667 281.704 300.674 276.458 300.674H177.458C172.211 300.674 170.965 297.667 174.675 293.957C178.385 290.247 185.646 287.239 190.893 287.239Z" fill="#2C3B78" stroke="#2C3B78"/>
<path d="M95.466 329.666H147.466C152.713 329.666 153.958 332.673 150.249 336.383C146.539 340.093 139.278 343.101 134.031 343.101H82.031C76.7843 343.101 75.5385 340.093 79.2485 336.383C82.9585 332.673 90.2193 329.666 95.466 329.666Z" fill="#2C3B78" stroke="#2C3B78"/>
<path d="M116.679 308.453H137.679C142.926 308.453 144.172 311.46 140.462 315.17C136.752 318.88 129.491 321.888 124.244 321.888H103.244C97.9974 321.888 96.7517 318.88 100.462 315.17C104.172 311.46 111.432 308.453 116.679 308.453Z" fill="#2C3B78" stroke="#2C3B78"/>
<path d="M155.244 321.888C149.997 321.888 148.752 318.88 152.462 315.17C156.172 311.46 163.432 308.453 168.679 308.453C173.926 308.453 175.172 311.46 171.462 315.17C167.752 318.88 160.491 321.888 155.244 321.888Z" fill="#2C3B78" stroke="#2C3B78"/>
<path d="M162.031 343.101C156.784 343.101 155.539 340.093 159.249 336.383C162.958 332.673 170.219 329.666 175.466 329.666C180.713 329.666 181.958 332.673 178.249 336.383C174.539 340.093 167.278 343.101 162.031 343.101Z" fill="#2C3B78" stroke="#2C3B78"/>
<path d="M288.679 308.453H322.679C327.926 308.453 329.172 311.46 325.462 315.17C321.752 318.88 314.491 321.888 309.244 321.888H275.244C269.997 321.888 268.752 318.88 272.462 315.17C276.172 311.46 283.432 308.453 288.679 308.453Z" fill="#2C3B78" stroke="#2C3B78"/>
<path d="M196.679 308.453H259.679C264.926 308.453 266.172 311.46 262.462 315.17C258.752 318.88 251.491 321.888 246.244 321.888H183.244C177.997 321.888 176.752 318.88 180.462 315.17C184.172 311.46 191.432 308.453 196.679 308.453Z" fill="#2C3B78" stroke="#2C3B78"/>
<path d="M301.52 264.612H366.52C371.767 264.612 373.012 267.62 369.302 271.329C365.592 275.039 358.332 278.047 353.085 278.047H288.085C282.838 278.047 281.592 275.039 285.302 271.329C289.012 267.62 296.273 264.612 301.52 264.612Z" fill="#2C3B78" stroke="#2C3B78"/>
<rect x="0.43934" y="1.06066" width="297" height="297" transform="matrix(1 0 -0.707107 0.707107 226.882 76.3107)" fill="#DDDDDD" stroke="#F71735" stroke-width="3"/>
<rect x="0.146447" y="0.353553" width="59" height="19" rx="9.5" transform="matrix(1 0 -0.707107 0.707107 231.361 88.1244)" fill="#F71735" stroke="#F71735"/>
<rect x="0.146447" y="0.353553" width="33" height="19" rx="9.5" transform="matrix(1 0 -0.707107 0.707107 302.361 88.1244)" fill="#F71735" stroke="#F71735"/>
<path d="M355.758 88.3744H395.758C401.004 88.3744 402.25 91.382 398.54 95.0919C394.83 98.8019 387.569 101.809 382.323 101.809H342.323C337.076 101.809 335.83 98.8019 339.54 95.0919C343.25 91.382 350.511 88.3744 355.758 88.3744Z" fill="#F71735" stroke="#F71735"/>
<path d="M311.13 111.002H422.13C427.377 111.002 428.623 114.009 424.913 117.719C421.203 121.429 413.942 124.437 408.695 124.437H297.695C292.448 124.437 291.203 121.429 294.913 117.719C298.623 114.009 305.883 111.002 311.13 111.002Z" fill="#F71735" stroke="#F71735"/>
<path d="M259.13 111.002H280.13C285.377 111.002 286.623 114.009 282.913 117.719C279.203 121.429 271.942 124.437 266.695 124.437H245.695C240.448 124.437 239.203 121.429 242.913 117.719C246.623 114.009 253.883 111.002 259.13 111.002Z" fill="#F71735" stroke="#F71735"/>
<path d="M237.917 132.215H258.917C264.164 132.215 265.409 135.223 261.699 138.933C257.989 142.642 250.729 145.65 245.482 145.65H224.482C219.235 145.65 217.989 142.642 221.699 138.933C225.409 135.223 232.67 132.215 237.917 132.215Z" fill="#F71735" stroke="#F71735"/>
<path d="M216.704 153.428H268.704C273.95 153.428 275.196 156.436 271.486 160.146C267.776 163.856 260.515 166.863 255.269 166.863H203.269C198.022 166.863 196.776 163.856 200.486 160.146C204.196 156.436 211.457 153.428 216.704 153.428Z" fill="#F71735" stroke="#F71735"/>
<path d="M296.704 153.428H309.704C314.95 153.428 316.196 156.436 312.486 160.146C308.776 163.856 301.515 166.863 296.269 166.863H283.269C278.022 166.863 276.776 163.856 280.486 160.146C284.196 156.436 291.457 153.428 296.704 153.428Z" fill="#F71735" stroke="#F71735"/>
<path d="M237.917 132.215H258.917C264.164 132.215 265.409 135.223 261.699 138.933C257.989 142.642 250.729 145.65 245.482 145.65H224.482C219.235 145.65 217.989 142.642 221.699 138.933C225.409 135.223 232.67 132.215 237.917 132.215Z" fill="#F71735" stroke="#F71735"/>
<path d="M276.482 145.65C271.235 145.65 269.989 142.642 273.699 138.933C277.409 135.223 284.67 132.215 289.917 132.215C295.164 132.215 296.409 135.223 292.699 138.933C288.989 142.642 281.729 145.65 276.482 145.65Z" fill="#F71735" stroke="#F71735"/>
<path d="M321.269 166.863C316.022 166.863 314.776 163.856 318.486 160.146C322.196 156.436 329.457 153.428 334.704 153.428C339.95 153.428 341.196 156.436 337.486 160.146C333.776 163.856 326.515 166.863 321.269 166.863Z" fill="#F71735" stroke="#F71735"/>
<path d="M409.917 132.215H443.917C449.164 132.215 450.409 135.223 446.699 138.933C442.989 142.642 435.729 145.65 430.482 145.65H396.482C391.235 145.65 389.989 142.642 393.699 138.933C397.409 135.223 404.67 132.215 409.917 132.215Z" fill="#F71735" stroke="#F71735"/>
<path d="M317.917 132.215H380.917C386.164 132.215 387.409 135.223 383.699 138.933C379.989 142.642 372.729 145.65 367.482 145.65H304.482C299.235 145.65 297.989 142.642 301.699 138.933C305.409 135.223 312.67 132.215 317.917 132.215Z" fill="#F71735" stroke="#F71735"/>
<path d="M359.704 153.428H422.704C427.95 153.428 429.196 156.436 425.486 160.146C421.776 163.856 414.515 166.863 409.269 166.863H346.269C341.022 166.863 339.776 163.856 343.486 160.146C347.196 156.436 354.457 153.428 359.704 153.428Z" fill="#F71735" stroke="#F71735"/>
<path d="M422.758 88.3744H487.758C493.004 88.3744 494.25 91.382 490.54 95.0919C486.83 98.8019 479.569 101.809 474.323 101.809H409.323C404.076 101.809 402.83 98.8019 406.54 95.0919C410.25 91.382 417.511 88.3744 422.758 88.3744Z" fill="#F71735" stroke="#F71735"/>
<rect x="0.146447" y="0.353553" width="59" height="19" rx="9.5" transform="matrix(1 0 -0.707107 0.707107 128.124 191.362)" fill="#F71735" stroke="#F71735"/>
<rect x="0.146447" y="0.353553" width="103" height="19" rx="9.5" transform="matrix(1 0 -0.707107 0.707107 199.124 191.362)" fill="#F71735" stroke="#F71735"/>
<path d="M334.893 214.239H357.893C363.139 214.239 364.385 217.247 360.675 220.957C356.965 224.667 349.704 227.674 344.458 227.674H321.458C316.211 227.674 314.965 224.667 318.675 220.957C322.385 217.247 329.646 214.239 334.893 214.239Z" fill="#F71735" stroke="#F71735"/>
<path d="M217.466 256.666H240.466C245.713 256.666 246.958 259.673 243.249 263.383C239.539 267.093 232.278 270.101 227.031 270.101H204.031C198.784 270.101 197.539 267.093 201.249 263.383C204.958 259.673 212.219 256.666 217.466 256.666Z" fill="#F71735" stroke="#F71735"/>
<path d="M151.893 214.239H172.893C178.139 214.239 179.385 217.247 175.675 220.957C171.965 224.667 164.704 227.674 159.458 227.674H138.458C133.211 227.674 131.965 224.667 135.675 220.957C139.385 217.247 146.646 214.239 151.893 214.239Z" fill="#F71735" stroke="#F71735"/>
<path d="M204.893 214.239H303.893C309.139 214.239 310.385 217.247 306.675 220.957C302.965 224.667 295.704 227.674 290.458 227.674H191.458C186.211 227.674 184.965 224.667 188.675 220.957C192.385 217.247 199.646 214.239 204.893 214.239Z" fill="#F71735" stroke="#F71735"/>
<path d="M109.466 256.666H161.466C166.713 256.666 167.958 259.673 164.249 263.383C160.539 267.093 153.278 270.101 148.031 270.101H96.031C90.7843 270.101 89.5385 267.093 93.2485 263.383C96.9585 259.673 104.219 256.666 109.466 256.666Z" fill="#F71735" stroke="#F71735"/>
<path d="M130.679 235.453H151.679C156.926 235.453 158.172 238.46 154.462 242.17C150.752 245.88 143.491 248.888 138.244 248.888H117.244C111.997 248.888 110.752 245.88 114.462 242.17C118.172 238.46 125.432 235.453 130.679 235.453Z" fill="#F71735" stroke="#F71735"/>
<path d="M169.244 248.888C163.997 248.888 162.752 245.88 166.462 242.17C170.172 238.46 177.432 235.453 182.679 235.453C187.926 235.453 189.172 238.46 185.462 242.17C181.752 245.88 174.491 248.888 169.244 248.888Z" fill="#F71735" stroke="#F71735"/>
<path d="M176.031 270.101C170.784 270.101 169.539 267.093 173.249 263.383C176.958 259.673 184.219 256.666 189.466 256.666C194.713 256.666 195.958 259.673 192.249 263.383C188.539 267.093 181.278 270.101 176.031 270.101Z" fill="#F71735" stroke="#F71735"/>
<path d="M302.679 235.453H336.679C341.926 235.453 343.172 238.46 339.462 242.17C335.752 245.88 328.491 248.888 323.244 248.888H289.244C283.997 248.888 282.752 245.88 286.462 242.17C290.172 238.46 297.432 235.453 302.679 235.453Z" fill="#F71735" stroke="#F71735"/>
<path d="M210.679 235.453H273.679C278.926 235.453 280.172 238.46 276.462 242.17C272.752 245.88 265.491 248.888 260.244 248.888H197.244C191.997 248.888 190.752 245.88 194.462 242.17C198.172 238.46 205.432 235.453 210.679 235.453Z" fill="#F71735" stroke="#F71735"/>
<path d="M315.52 191.612H380.52C385.767 191.612 387.012 194.62 383.302 198.329C379.592 202.039 372.332 205.047 367.085 205.047H302.085C296.838 205.047 295.592 202.039 299.302 198.329C303.012 194.62 310.273 191.612 315.52 191.612Z" fill="#F71735" stroke="#F71735"/>
<rect x="0.585786" y="1.41421" width="296" height="296" transform="matrix(1 0 -0.707107 0.707107 223.132 0.414214)" fill="#DDDDDD" stroke="black" stroke-width="4"/>
<rect width="60" height="20" rx="10" transform="matrix(1 0 -0.707107 0.707107 227.111 12.0209)" fill="#271F16"/>
<rect width="34" height="20" rx="10" transform="matrix(1 0 -0.707107 0.707107 298.111 12.0209)" fill="#271F16"/>
<path d="M335.04 19.0919C338.946 15.1867 346.588 12.0209 352.111 12.0209H392.111C397.634 12.0209 398.946 15.1867 395.04 19.0919V19.0919C391.135 22.9972 383.492 26.163 377.969 26.163H337.969C332.446 26.163 331.135 22.9972 335.04 19.0919V19.0919Z" fill="#271F16"/>
<path d="M290.413 41.7193C294.318 37.814 301.961 34.6482 307.484 34.6482H418.484C424.007 34.6482 425.318 37.814 421.413 41.7193V41.7193C417.508 45.6245 409.865 48.7903 404.342 48.7903H293.342C287.819 48.7903 286.508 45.6245 290.413 41.7193V41.7193Z" fill="#271F16"/>
<path d="M238.413 41.7193C242.318 37.814 249.961 34.6482 255.484 34.6482H276.484C282.007 34.6482 283.318 37.814 279.413 41.7193V41.7193C275.508 45.6245 267.865 48.7903 262.342 48.7903H241.342C235.819 48.7903 234.508 45.6245 238.413 41.7193V41.7193Z" fill="#271F16"/>
<path d="M217.2 62.9325C221.105 59.0273 228.748 55.8615 234.271 55.8615H255.271C260.794 55.8615 262.105 59.0273 258.2 62.9325V62.9325C254.294 66.8378 246.651 70.0036 241.129 70.0036H220.129C214.606 70.0036 213.294 66.8378 217.2 62.9325V62.9325Z" fill="#271F16"/>
<path d="M195.986 84.1457C199.892 80.2404 207.535 77.0746 213.057 77.0746H265.057C270.58 77.0746 271.892 80.2404 267.986 84.1457V84.1457C264.081 88.0509 256.438 91.2167 250.915 91.2167H198.915C193.392 91.2167 192.081 88.0509 195.986 84.1457V84.1457Z" fill="#271F16"/>
<path d="M275.986 84.1457C279.892 80.2404 287.535 77.0746 293.057 77.0746H306.057C311.58 77.0746 312.892 80.2404 308.986 84.1457V84.1457C305.081 88.0509 297.438 91.2167 291.915 91.2167H278.915C273.392 91.2167 272.081 88.0509 275.986 84.1457V84.1457Z" fill="#271F16"/>
<path d="M217.2 62.9325C221.105 59.0273 228.748 55.8615 234.271 55.8615H255.271C260.794 55.8615 262.105 59.0273 258.2 62.9325V62.9325C254.294 66.8378 246.651 70.0036 241.129 70.0036H220.129C214.606 70.0036 213.294 66.8378 217.2 62.9325V62.9325Z" fill="#271F16"/>
<path d="M272.836 69.2965C267.865 69.2965 266.685 66.4472 270.2 62.9325C273.714 59.4178 280.593 56.5686 285.564 56.5686C290.534 56.5686 291.714 59.4178 288.2 62.9325C284.685 66.4472 277.806 69.2965 272.836 69.2965Z" stroke="black" stroke-width="2"/>
<path d="M317.622 90.5096C312.652 90.5096 311.472 87.6604 314.986 84.1457C318.501 80.6309 325.38 77.7817 330.35 77.7817C335.321 77.7817 336.501 80.6309 332.986 84.1457C329.472 87.6604 322.593 90.5096 317.622 90.5096Z" stroke="#271F16" stroke-width="2"/>
<path d="M389.2 62.9325C393.105 59.0273 400.748 55.8615 406.271 55.8615H440.271C445.794 55.8615 447.105 59.0273 443.2 62.9325V62.9325C439.294 66.8378 431.651 70.0036 426.129 70.0036H392.129C386.606 70.0036 385.294 66.8378 389.2 62.9325V62.9325Z" fill="#271F16"/>
<path d="M297.2 62.9325C301.105 59.0273 308.748 55.8615 314.271 55.8615H377.271C382.794 55.8615 384.105 59.0273 380.2 62.9325V62.9325C376.294 66.8378 368.651 70.0036 363.129 70.0036H300.129C294.606 70.0036 293.294 66.8378 297.2 62.9325V62.9325Z" fill="#271F16"/>
<path d="M338.986 84.1457C342.892 80.2404 350.535 77.0746 356.057 77.0746H419.057C424.58 77.0746 425.892 80.2404 421.986 84.1457V84.1457C418.081 88.0509 410.438 91.2167 404.915 91.2167H341.915C336.392 91.2167 335.081 88.0509 338.986 84.1457V84.1457Z" fill="#271F16"/>
<path d="M402.04 19.0919C405.946 15.1867 413.588 12.0209 419.111 12.0209H484.111C489.634 12.0209 490.946 15.1867 487.04 19.0919V19.0919C483.135 22.9972 475.492 26.163 469.969 26.163H404.969C399.446 26.163 398.135 22.9972 402.04 19.0919V19.0919Z" fill="#271F16"/>
<rect width="60" height="20" rx="10" transform="matrix(1 0 -0.707107 0.707107 123.874 115.258)" fill="#271F16"/>
<rect width="104" height="20" rx="10" transform="matrix(1 0 -0.707107 0.707107 194.874 115.258)" fill="#271F16"/>
<path d="M314.175 144.957C318.081 141.052 325.723 137.886 331.246 137.886H354.246C359.769 137.886 361.081 141.052 357.175 144.957V144.957C353.27 148.862 345.627 152.028 340.104 152.028H317.104C311.581 152.028 310.27 148.862 314.175 144.957V144.957Z" fill="#271F16"/>
<path d="M196.749 187.383C200.654 183.478 208.297 180.312 213.82 180.312H236.82C242.343 180.312 243.654 183.478 239.749 187.383V187.383C235.844 191.289 228.201 194.454 222.678 194.454H199.678C194.155 194.454 192.844 191.289 196.749 187.383V187.383Z" fill="#271F16"/>
<path d="M131.175 144.957C135.081 141.052 142.723 137.886 148.246 137.886H169.246C174.769 137.886 176.081 141.052 172.175 144.957V144.957C168.27 148.862 160.627 152.028 155.104 152.028H134.104C128.581 152.028 127.27 148.862 131.175 144.957V144.957Z" fill="#271F16"/>
<path d="M184.175 144.957C188.081 141.052 195.723 137.886 201.246 137.886H300.246C305.769 137.886 307.081 141.052 303.175 144.957V144.957C299.27 148.862 291.627 152.028 286.104 152.028H187.104C181.581 152.028 180.27 148.862 184.175 144.957V144.957Z" fill="#271F16"/>
<path d="M88.7488 187.383C92.654 183.478 100.297 180.312 105.82 180.312H157.82C163.343 180.312 164.654 183.478 160.749 187.383V187.383C156.844 191.289 149.201 194.454 143.678 194.454H91.6777C86.1548 194.454 84.8435 191.289 88.7488 187.383V187.383Z" fill="#271F16"/>
<path d="M109.962 166.17C113.867 162.265 121.51 159.099 127.033 159.099H148.033C153.556 159.099 154.867 162.265 150.962 166.17V166.17C147.057 170.075 139.414 173.241 133.891 173.241H112.891C107.368 173.241 106.057 170.075 109.962 166.17V166.17Z" fill="#271F16"/>
<path d="M165.598 172.534C160.627 172.534 159.447 169.685 162.962 166.17C166.477 162.655 173.355 159.806 178.326 159.806C183.296 159.806 184.477 162.655 180.962 166.17C177.447 169.685 170.568 172.534 165.598 172.534Z" stroke="#271F16" stroke-width="2"/>
<path d="M168.749 187.383C172.654 183.478 180.297 180.312 185.82 180.312V180.312C191.343 180.312 192.654 183.478 188.749 187.383V187.383C184.844 191.289 177.201 194.454 171.678 194.454V194.454C166.155 194.454 164.844 191.289 168.749 187.383V187.383Z" fill="#271F16"/>
<path d="M281.962 166.17C285.867 162.265 293.51 159.099 299.033 159.099H333.033C338.556 159.099 339.867 162.265 335.962 166.17V166.17C332.057 170.075 324.414 173.241 318.891 173.241H284.891C279.368 173.241 278.057 170.075 281.962 166.17V166.17Z" fill="#271F16"/>
<path d="M189.962 166.17C193.867 162.265 201.51 159.099 207.033 159.099H270.033C275.556 159.099 276.867 162.265 272.962 166.17V166.17C269.057 170.075 261.414 173.241 255.891 173.241H192.891C187.368 173.241 186.057 170.075 189.962 166.17V166.17Z" fill="#271F16"/>
<path d="M294.803 122.329C298.708 118.424 306.351 115.258 311.874 115.258H376.874C382.397 115.258 383.708 118.424 379.803 122.329V122.329C375.897 126.235 368.254 129.401 362.732 129.401H297.732C292.209 129.401 290.897 126.235 294.803 122.329V122.329Z" fill="#271F16"/>
</svg>
