<svg width="294" height="369" viewBox="0 0 294 369" fill="none" xmlns="http://www.w3.org/2000/svg">
<circle cx="151.015" cy="187.848" r="138.309" stroke="#DDDDDD" stroke-width="8"/>
<path d="M190.192 329.823C190.192 351.46 172.652 369 151.015 369C129.378 369 111.838 351.46 111.838 329.823C111.838 308.186 129.378 290.646 151.015 290.646C172.652 290.646 190.192 308.186 190.192 329.823Z" fill="#2C3B78"/>
<path d="M78.3539 277.587C78.3539 299.224 60.8138 316.764 39.177 316.764C17.5401 316.764 0 299.224 0 277.587C0 255.95 17.5401 238.41 39.177 238.41C60.8138 238.41 78.3539 255.95 78.3539 277.587Z" fill="#F71735"/>
<path d="M290.646 280.266C290.646 301.903 273.106 319.443 251.469 319.443C229.832 319.443 212.292 301.903 212.292 280.266C212.292 258.629 229.832 241.089 251.469 241.089C273.106 241.089 290.646 258.629 290.646 280.266Z" fill="#F71735"/>
<path d="M232.383 83.7114C232.383 129.944 194.904 167.423 148.671 167.423C102.439 167.423 64.96 129.944 64.96 83.7114C64.96 37.4789 102.439 0 148.671 0C194.904 0 232.383 37.4789 232.383 83.7114Z" fill="white"/>
</svg>
