<svg width="55" height="56" viewBox="0 0 55 56" fill="none" xmlns="http://www.w3.org/2000/svg">
<path d="M24.5115 2.09208C21.5009 1.83849 18.84 1.20453 17.3639 0.295854C17.2085 0.190194 17.0726 0.10566 16.9366 0C15.4993 0.82415 14.1203 1.7751 12.8384 2.8317C13.0132 2.97962 13.2074 3.10642 13.4211 3.23321C15.4799 4.50114 19.1702 5.36755 23.3461 5.72679C23.7151 4.4166 24.1036 3.19094 24.5115 2.09208Z" fill="white"/>
<path d="M37.7388 0.211426C36.7094 0.908781 34.8836 1.52161 32.4169 1.88086C31.5429 2.00765 30.6494 2.09217 29.7366 2.15557C30.0473 3.27556 30.3387 4.50122 30.6106 5.83254C31.8731 5.74801 33.1356 5.62122 34.3398 5.45216C37.7776 4.945 40.3026 4.12084 41.7399 3.14877C40.4774 2.04991 39.1372 1.07784 37.7388 0.211426Z" fill="white"/>
<path d="M45.9156 7.43861C44.0704 8.70655 40.7879 9.7843 36.3401 10.4183C31.7563 11.0945 26.7258 11.179 22.1615 10.7986C21.0155 10.693 19.9084 10.5662 18.8402 10.4183C14.8391 9.84769 11.4206 8.87561 9.32298 7.56541C9.03164 7.39636 8.77914 7.20617 8.56549 7.03711C7.45839 8.34731 6.42899 9.74202 5.51611 11.2001C5.76861 11.4115 6.07938 11.6228 6.39014 11.813C8.81799 13.3134 12.7802 14.4545 17.4223 15.1307C18.6654 15.2998 19.9667 15.4477 21.2874 15.5745C26.5899 16.0183 32.4361 15.9126 37.758 15.1307C42.905 14.37 46.7119 13.1232 48.8678 11.6651C47.9744 10.1647 46.9838 8.74881 45.9156 7.43861Z" fill="white"/>
<path d="M20.491 21.6601C13.4016 21.0684 7.16692 19.5891 3.67081 17.4337C3.30178 17.2012 2.97158 16.9688 2.68024 16.7363C2.01986 18.3635 1.4566 20.0752 1.0293 21.808C1.34006 22.0616 1.68967 22.3152 2.09755 22.5476C5.80732 24.851 12.4693 26.4148 20.0248 27.0487C20.1414 25.2314 20.2968 23.4352 20.491 21.6601Z" fill="white"/>
<path d="M51.6259 17.2437C49.1981 18.892 44.9056 20.3078 39.0788 21.1531C37.02 21.4489 34.9029 21.6602 32.7664 21.787C32.9023 23.5621 33.0189 25.3583 33.116 27.1968C35.4079 27.0489 37.6609 26.8376 39.8557 26.5206C46.0516 25.6119 50.6354 24.1116 53.2186 22.3576C52.7913 20.6036 52.2669 18.892 51.6259 17.2437Z" fill="white"/>
<path d="M54.1314 28.7186C51.4511 30.536 46.6925 32.0997 40.283 33.0507C33.6404 34.0227 26.3762 34.1707 19.753 33.6001C18.8402 33.5156 17.9273 33.431 17.0338 33.3254C10.3524 32.5435 4.56437 31.022 1.16537 28.9299C0.757491 28.6764 0.388454 28.4228 0.0582661 28.1692C0.0194205 28.8454 0 29.5216 0 30.1979C0 31.3601 0.0582733 32.5012 0.17481 33.6212C0.504999 33.8748 0.854605 34.1284 1.26248 34.382C4.64206 36.474 10.3912 37.9744 17.0532 38.7563C17.9467 38.862 18.8402 38.9465 19.753 39.031C26.3374 39.5804 33.5821 39.4536 40.1859 38.4816C46.576 37.5518 51.2957 35.988 53.9761 34.1707C54.0926 33.0507 54.1509 31.9095 54.1509 30.7473C54.1703 30.0499 54.1509 29.3737 54.1314 28.7186Z" fill="white"/>
<path d="M48.0715 49.322C45.9933 50.7379 42.303 51.9424 37.3307 52.682C32.1837 53.4427 26.5511 53.5484 21.4234 53.1046C20.7048 53.0412 20.0056 52.9779 19.3258 52.8933C14.1399 52.2805 9.67263 51.1183 7.03112 49.4911C6.72036 49.3009 6.42901 49.0896 6.17651 48.8994C7.14765 50.1039 8.21591 51.2239 9.36186 52.2171C9.57551 52.3861 9.80859 52.5552 10.0805 52.7243C12.3141 54.0978 16.121 55.1122 20.53 55.6193C21.1127 55.6827 21.7148 55.7461 22.3169 55.7884C26.6676 56.1476 31.465 56.0631 35.8352 55.4291C40.0499 54.8163 43.177 53.7809 44.9445 52.5763C46.071 51.6043 47.1198 50.5054 48.0715 49.322Z" fill="white"/>
<path d="M20.1025 44.7784C12.6636 44.1445 6.07924 42.6018 2.42774 40.3407C2.03929 40.1082 1.68967 39.8547 1.37891 39.6011C1.86448 41.2071 2.46659 42.7286 3.18524 44.1656C3.47658 44.398 3.78735 44.6305 4.15638 44.8418C7.55538 46.955 13.6736 48.392 20.6075 48.9837C20.3939 47.6946 20.2191 46.2788 20.1025 44.7784Z" fill="white"/>
<path d="M52.8301 40.1299C50.2663 41.8627 45.7602 43.342 39.642 44.2507C37.4861 44.5677 35.2525 44.8001 32.9994 44.9269C32.8829 46.4273 32.7664 47.8432 32.5916 49.1322C34.6892 49.0054 36.7674 48.7941 38.768 48.4983C44.4395 47.6741 48.6542 46.2794 51.0238 44.6733C51.7424 43.2363 52.3445 41.7148 52.8301 40.1299Z" fill="white"/>
</svg>
